<svg xmlns="http://www.w3.org/2000/svg" width="18.94" height="16.969" viewBox="0 0 18.94 16.969">
  <defs>
    <style>
      .cls-1 {
        fill: #243f4d;
        fill-rule: evenodd;
      }
    </style>
  </defs>
  <path class="cls-1" d="M1719.53,105.978a2.074,2.074,0,1,1,0-4.147h0a2.059,2.059,0,0,1,1.46.6,2.034,2.034,0,0,1,.61,1.467A2.071,2.071,0,0,1,1719.53,105.978Zm0-2.963h0a0.889,0.889,0,1,0,.34,1.709,0.9,0.9,0,0,0,.55-0.823,0.921,0.921,0,0,0-.26-0.629A0.9,0.9,0,0,0,1719.53,103.015Zm8.39,2.963a2.044,2.044,0,0,1-1.46-.607,2.068,2.068,0,0,1,1.46-3.54h0a1.954,1.954,0,0,1,1.47.6,2.085,2.085,0,0,1-.67,3.383A2.116,2.116,0,0,1,1727.92,105.978Zm0-2.963h0a0.978,0.978,0,0,0-.82.548,0.886,0.886,0,0,0,1.16,1.161,0.891,0.891,0,0,0,.29-1.452A0.9,0.9,0,0,0,1727.92,103.015Zm-11.27.163a0.551,0.551,0,0,1-.25-0.056,0.589,0.589,0,0,1-.29-0.787,3.689,3.689,0,0,1,3.05-2.151l-1.05-5.391a0.591,0.591,0,1,1,1.16-.228l1.09,5.578h9.43l1.8-6.771h-13.3a4.346,4.346,0,0,1-4.28-3.693,0.587,0.587,0,0,1,.49-0.673,0.6,0.6,0,0,1,.68.5,3.159,3.159,0,0,0,3.11,2.682h14.07a0.582,0.582,0,0,1,.47.232,0.594,0.594,0,0,1,.11.513l-2.13,7.956a0.59,0.59,0,0,1-.57.44h-10.36a0.03,0.03,0,0,0-.02,0,2.66,2.66,0,0,0-2.68,1.509A0.586,0.586,0,0,1,1716.65,103.178Z" transform="translate(-1714 -89)"/>
</svg>
