<?xml version="1.0" encoding="UTF-8"?>
<svg xmlns="http://www.w3.org/2000/svg" xmlns:xlink="http://www.w3.org/1999/xlink" width="50pt" height="50pt" viewBox="0 0 50 50" version="1.1">
<g id="surface1">
<path style=" stroke:none;fill-rule:nonzero;fill:#ffffff;fill-opacity:1;" d="M 29.6875 40.625 L 23.4375 40.625 C 22.574219 40.625 21.875 41.324219 21.875 42.1875 L 21.875 45.3125 C 21.875 46.175781 22.574219 46.875 23.4375 46.875 L 29.6875 46.875 C 30.550781 46.875 31.25 46.175781 31.25 45.3125 L 31.25 42.1875 C 31.25 41.324219 30.550781 40.625 29.6875 40.625 Z M 1.5625 15.625 L 6.25 15.625 L 6.25 45.3125 C 6.25 46.175781 6.949219 46.875 7.8125 46.875 L 10.9375 46.875 C 11.800781 46.875 12.5 46.175781 12.5 45.3125 L 12.5 15.625 L 17.1875 15.625 C 18.574219 15.625 19.273438 13.941406 18.292969 12.957031 L 10.480469 3.582031 C 9.871094 2.972656 8.878906 2.972656 8.269531 3.582031 L 0.457031 12.957031 C -0.523438 13.9375 0.171875 15.625 1.5625 15.625 Z M 42.1875 15.625 L 23.4375 15.625 C 22.574219 15.625 21.875 16.324219 21.875 17.1875 L 21.875 20.3125 C 21.875 21.175781 22.574219 21.875 23.4375 21.875 L 42.1875 21.875 C 43.050781 21.875 43.75 21.175781 43.75 20.3125 L 43.75 17.1875 C 43.75 16.324219 43.050781 15.625 42.1875 15.625 Z M 35.9375 28.125 L 23.4375 28.125 C 22.574219 28.125 21.875 28.824219 21.875 29.6875 L 21.875 32.8125 C 21.875 33.675781 22.574219 34.375 23.4375 34.375 L 35.9375 34.375 C 36.800781 34.375 37.5 33.675781 37.5 32.8125 L 37.5 29.6875 C 37.5 28.824219 36.800781 28.125 35.9375 28.125 Z M 48.4375 3.125 L 23.4375 3.125 C 22.574219 3.125 21.875 3.824219 21.875 4.6875 L 21.875 7.8125 C 21.875 8.675781 22.574219 9.375 23.4375 9.375 L 48.4375 9.375 C 49.300781 9.375 50 8.675781 50 7.8125 L 50 4.6875 C 50 3.824219 49.300781 3.125 48.4375 3.125 Z M 48.4375 3.125 "/>
</g>
</svg>
