<?xml version="1.0" encoding="UTF-8"?>
<svg xmlns="http://www.w3.org/2000/svg" xmlns:xlink="http://www.w3.org/1999/xlink" width="12pt" height="13pt" viewBox="0 0 12 13" version="1.1">
<g id="surface1">
<path style=" stroke:none;fill-rule:nonzero;fill:#ffffff;fill-opacity:1;" d="M 6 6.5 C 7.894531 6.5 9.429688 5.046875 9.429688 3.25 C 9.429688 1.453125 7.894531 0 6 0 C 4.105469 0 2.570312 1.453125 2.570312 3.25 C 2.570312 5.046875 4.105469 6.5 6 6.5 Z M 8.398438 7.3125 L 7.953125 7.3125 C 7.359375 7.570312 6.695312 7.71875 6 7.71875 C 5.304688 7.71875 4.644531 7.570312 4.046875 7.3125 L 3.601562 7.3125 C 1.613281 7.3125 0 8.839844 0 10.726562 L 0 11.78125 C 0 12.453125 0.574219 13 1.285156 13 L 10.714844 13 C 11.425781 13 12 12.453125 12 11.78125 L 12 10.726562 C 12 8.839844 10.386719 7.3125 8.398438 7.3125 Z M 8.398438 7.3125 "/>
</g>
</svg>
